<?xml version="1.0" encoding="UTF-8" standalone="no" ?>
<!DOCTYPE svg PUBLIC "-//W3C//DTD SVG 1.1//EN" "http://www.w3.org/Graphics/SVG/1.1/DTD/svg11.dtd">
<svg xmlns="http://www.w3.org/2000/svg" xmlns:xlink="http://www.w3.org/1999/xlink" version="1.1" width="1280" height="1024" viewBox="0 0 1280 1024" xml:space="preserve">
<desc>Created with Fabric.js 5.3.0</desc>
<defs>
</defs>
<g transform="matrix(1 0 0 1 640 512)" id="background-logo"  >
<rect style="stroke: none; stroke-width: 0; stroke-dasharray: none; stroke-linecap: butt; stroke-dashoffset: 0; stroke-linejoin: miter; stroke-miterlimit: 4; fill: rgb(255,255,255); fill-opacity: 0; fill-rule: nonzero; opacity: 1;"  paint-order="stroke"  x="-640" y="-512" rx="0" ry="0" width="1280" height="1024" />
</g>
<g transform="matrix(1.9211538461538462 0 0 1.9211538461538462 640 398.233206533338)" id="logo-logo"  >
<g style=""  paint-order="stroke"   >
		<g transform="matrix(2.0751093192046253 0 0 2.0751093192046253 52.98895402054984 12.190229695667512)"  >
<linearGradient id="SVGID_3_54168" gradientUnits="userSpaceOnUse" gradientTransform="matrix(1 0 0 1 403.428 560.2649999999999)"  x1="0" y1="0" x2="0" y2="82">
<stop offset="0%" style="stop-color:rgb(113,23,234);stop-opacity: 1"/>
<stop offset="100%" style="stop-color:rgb(234,96,96);stop-opacity: 1"/>
</linearGradient>
<path style="stroke: none; stroke-width: 1; stroke-dasharray: none; stroke-linecap: butt; stroke-dashoffset: 0; stroke-linejoin: miter; stroke-miterlimit: 4; fill: url(#SVGID_3_54168); fill-rule: nonzero; opacity: 1;"  paint-order="stroke"  transform=" translate(-446.47900000000004, -601.1489999999999)" d="M 451.05 605.482 C 459.733 610.495 468.392 615.509 477.08000000000004 620.525 L 477.08000000000004 581.77 C 458.19800000000004 592.67 439.32300000000004 603.581 420.44300000000004 614.483 L 415.456 612.4 L 425.74100000000004 619.4069999999999 L 403.42800000000005 617.1349999999999 L 412.61600000000004 596.6749999999998 L 413.18700000000007 604.3279999999999 C 438.63500000000005 589.6369999999998 464.0830000000001 574.9569999999999 489.5300000000001 560.2649999999999 L 489.5300000000001 642.0329999999999 C 472.5610000000001 632.2359999999999 455.5920000000001 622.4529999999999 438.6250000000001 612.6569999999999 L 451.0480000000001 605.4839999999999 L 451.05 605.482 z M 413.701 611.203 L 413.701 611.203 L 413.701 611.203 L 413.701 611.203 z" stroke-linecap="round" />
</g>
		<g transform="matrix(2.0751093192046253 0 0 2.0751093192046253 -52.987916465890294 -12.190229695667455)"  >
<linearGradient id="SVGID_4_54169" gradientUnits="userSpaceOnUse" gradientTransform="matrix(1 0 0 1 352.35699999999986 548.516)"  x1="0" y1="0" x2="0" y2="82">
<stop offset="0%" style="stop-color:rgb(98,39,116);stop-opacity: 1"/>
<stop offset="100%" style="stop-color:rgb(197,51,100);stop-opacity: 1"/>
</linearGradient>
<path style="stroke: none; stroke-width: 1; stroke-dasharray: none; stroke-linecap: butt; stroke-dashoffset: 0; stroke-linejoin: miter; stroke-miterlimit: 4; fill: url(#SVGID_4_54169); fill-rule: nonzero; opacity: 1;"  paint-order="stroke"  transform=" translate(-395.4084999999999, -589.4)" d="M 390.839 585.066 C 382.156 580.053 373.497 575.039 364.80899999999997 570.023 L 364.80899999999997 608.779 C 383.691 597.878 402.56499999999994 586.967 421.44599999999997 576.066 L 426.43199999999996 578.149 L 416.14699999999993 571.141 L 438.4599999999999 573.414 L 429.27199999999993 593.874 L 428.7009999999999 586.221 C 403.25299999999993 600.912 377.8049999999999 615.592 352.3569999999999 630.284 L 352.3569999999999 548.516 C 369.3269999999999 558.313 386.29599999999994 568.096 403.2629999999999 577.8919999999999 L 390.8399999999999 585.064 L 390.839 585.066 z M 428.188 579.346 L 428.188 579.346 L 428.188 579.346 L 428.188 579.346 z" stroke-linecap="round" />
</g>
</g>
</g>
</svg>