<svg width="512" height="512" viewBox="0 0 512 512" fill="none" xmlns="http://www.w3.org/2000/svg">
<path d="M290.126 189.807C295.504 192.922 295.431 200.712 289.995 203.726L235.764 233.789C233.307 235.151 230.315 235.124 227.883 233.719L97.2247 158.208C91.8913 155.125 85.2217 158.974 85.2217 165.134V358.615C85.2217 364.772 91.8865 368.621 97.2198 365.544L358.174 214.975C361.994 212.772 363.31 207.893 361.117 204.068L340.486 168.076C337.254 162.436 341.741 155.499 348.211 156.136L491.879 170.277C497.334 170.814 500.646 176.555 498.379 181.546L439.139 311.986C436.467 317.87 428.282 318.321 424.979 312.767L403.952 277.411C401.709 273.64 396.846 272.379 393.052 274.586L26.0234 488.149C20.6901 491.252 14 487.405 14 481.234V43.7277C14 37.5641 20.6768 33.7157 26.0101 36.8053L290.126 189.807Z" fill="white"/>
</svg>
