<?xml version="1.0" encoding="UTF-8" standalone="no" ?>
<!DOCTYPE svg PUBLIC "-//W3C//DTD SVG 1.1//EN" "http://www.w3.org/Graphics/SVG/1.1/DTD/svg11.dtd">
<svg xmlns="http://www.w3.org/2000/svg" xmlns:xlink="http://www.w3.org/1999/xlink" version="1.1" width="1280" height="1024" viewBox="0 0 1280 1024" xml:space="preserve">
<desc>Created with Fabric.js 5.3.0</desc>
<defs>
</defs>
<g transform="matrix(1 0 0 1 640 512)" id="background-logo"  >
<rect style="stroke: none; stroke-width: 0; stroke-dasharray: none; stroke-linecap: butt; stroke-dashoffset: 0; stroke-linejoin: miter; stroke-miterlimit: 4; fill: rgb(255,255,255); fill-opacity: 0; fill-rule: nonzero; opacity: 1;"  paint-order="stroke"  x="-640" y="-512" rx="0" ry="0" width="1280" height="1024" />
</g>
<g transform="matrix(0.8161556452162518 0 0 0.8161556452162518 202.86618047623216 454.41104679342055)" id="logo-logo"  >
<g style=""  paint-order="stroke"   >
		<g transform="matrix(2.0751093192046253 0 0 2.0751093192046253 52.98895402054984 12.190229695667512)"  >
<linearGradient id="SVGID_9_65992" gradientUnits="userSpaceOnUse" gradientTransform="matrix(1 0 0 1 403.428 560.2649999999999)"  x1="0" y1="0" x2="0" y2="82">
<stop offset="0%" style="stop-color:rgb(113,23,234);stop-opacity: 1"/>
<stop offset="100%" style="stop-color:rgb(234,96,96);stop-opacity: 1"/>
</linearGradient>
<path style="stroke: none; stroke-width: 1; stroke-dasharray: none; stroke-linecap: butt; stroke-dashoffset: 0; stroke-linejoin: miter; stroke-miterlimit: 4; fill: url(#SVGID_9_65992); fill-rule: nonzero; opacity: 1;"  paint-order="stroke"  transform=" translate(-446.47900000000004, -601.1489999999999)" d="M 451.05 605.482 C 459.733 610.495 468.392 615.509 477.08000000000004 620.525 L 477.08000000000004 581.77 C 458.19800000000004 592.67 439.32300000000004 603.581 420.44300000000004 614.483 L 415.456 612.4 L 425.74100000000004 619.4069999999999 L 403.42800000000005 617.1349999999999 L 412.61600000000004 596.6749999999998 L 413.18700000000007 604.3279999999999 C 438.63500000000005 589.6369999999998 464.0830000000001 574.9569999999999 489.5300000000001 560.2649999999999 L 489.5300000000001 642.0329999999999 C 472.5610000000001 632.2359999999999 455.5920000000001 622.4529999999999 438.6250000000001 612.6569999999999 L 451.0480000000001 605.4839999999999 L 451.05 605.482 z M 413.701 611.203 L 413.701 611.203 L 413.701 611.203 L 413.701 611.203 z" stroke-linecap="round" />
</g>
		<g transform="matrix(2.0751093192046253 0 0 2.0751093192046253 -52.987916465890294 -12.190229695667455)"  >
<linearGradient id="SVGID_10_65993" gradientUnits="userSpaceOnUse" gradientTransform="matrix(1 0 0 1 352.35699999999986 548.516)"  x1="0" y1="0" x2="0" y2="82">
<stop offset="0%" style="stop-color:rgb(98,39,116);stop-opacity: 1"/>
<stop offset="100%" style="stop-color:rgb(197,51,100);stop-opacity: 1"/>
</linearGradient>
<path style="stroke: none; stroke-width: 1; stroke-dasharray: none; stroke-linecap: butt; stroke-dashoffset: 0; stroke-linejoin: miter; stroke-miterlimit: 4; fill: url(#SVGID_10_65993); fill-rule: nonzero; opacity: 1;"  paint-order="stroke"  transform=" translate(-395.4084999999999, -589.4)" d="M 390.839 585.066 C 382.156 580.053 373.497 575.039 364.80899999999997 570.023 L 364.80899999999997 608.779 C 383.691 597.878 402.56499999999994 586.967 421.44599999999997 576.066 L 426.43199999999996 578.149 L 416.14699999999993 571.141 L 438.4599999999999 573.414 L 429.27199999999993 593.874 L 428.7009999999999 586.221 C 403.25299999999993 600.912 377.8049999999999 615.592 352.3569999999999 630.284 L 352.3569999999999 548.516 C 369.3269999999999 558.313 386.29599999999994 568.096 403.2629999999999 577.8919999999999 L 390.8399999999999 585.064 L 390.839 585.066 z M 428.188 579.346 L 428.188 579.346 L 428.188 579.346 L 428.188 579.346 z" stroke-linecap="round" />
</g>
</g>
</g>
<g transform="matrix(1.9211538461538462 0 0 1.9211538461538462 787.0301133642454 479.9443799109246)" id="text-logo"  >
<g style=""  paint-order="stroke"   >
		<g transform="matrix(1 0 0 1 0 0)" id="text-logo-path-0"  >
<path style="stroke: none; stroke-width: 0; stroke-dasharray: none; stroke-linecap: butt; stroke-dashoffset: 0; stroke-linejoin: miter; stroke-miterlimit: 4; fill: rgb(255,255,255); fill-rule: nonzero; opacity: 1;"  paint-order="stroke"  transform=" translate(-224.69, 23.25)" d="M 19.3 0 L 5.62 0 L 5.62 -64.69 L 31.15 -64.69 Q 38.47 -64.69 43.67 -62.09 Q 48.87 -59.48 51.6 -54.73 Q 54.33 -49.97 54.33 -43.56 L 54.33 -43.56 Q 54.33 -37.12 51.55 -32.49 Q 48.77 -27.86 43.51 -25.4 Q 38.25 -22.93 30.8 -22.93 L 30.8 -22.93 L 13.71 -22.93 L 13.71 -33.93 L 28.59 -33.93 Q 32.5 -33.93 35.09 -35 Q 37.68 -36.07 38.96 -38.22 Q 40.24 -40.37 40.24 -43.56 L 40.24 -43.56 Q 40.24 -46.78 38.96 -48.99 Q 37.68 -51.2 35.08 -52.36 Q 32.47 -53.51 28.52 -53.51 L 28.52 -53.51 L 19.3 -53.51 L 19.3 0 Z M 25.81 -29.44 L 40.56 -29.44 L 56.64 0 L 41.54 0 L 25.81 -29.44 Z M 87.7 0.95 L 87.7 0.95 Q 80.22 0.95 74.83 -2.1 Q 69.44 -5.15 66.54 -10.76 Q 63.63 -16.36 63.63 -24.04 L 63.63 -24.04 Q 63.63 -31.52 66.54 -37.18 Q 69.44 -42.83 74.74 -45.99 Q 80.03 -49.15 87.17 -49.15 L 87.17 -49.15 Q 91.97 -49.15 96.12 -47.62 Q 100.27 -46.09 103.39 -43.02 Q 106.5 -39.96 108.23 -35.33 Q 109.97 -30.7 109.97 -24.51 L 109.97 -24.51 L 109.97 -20.82 L 69 -20.82 L 69 -29.16 L 97.31 -29.16 Q 97.31 -32.06 96.04 -34.3 Q 94.78 -36.55 92.55 -37.83 Q 90.32 -39.11 87.39 -39.11 L 87.39 -39.11 Q 84.32 -39.11 81.97 -37.7 Q 79.62 -36.29 78.29 -33.94 Q 76.96 -31.59 76.93 -28.71 L 76.93 -28.71 L 76.93 -20.78 Q 76.93 -17.18 78.27 -14.56 Q 79.62 -11.94 82.08 -10.52 Q 84.54 -9.1 87.92 -9.1 L 87.92 -9.1 Q 90.17 -9.1 92.03 -9.73 Q 93.89 -10.36 95.22 -11.62 Q 96.55 -12.89 97.24 -14.72 L 97.24 -14.72 L 109.69 -13.9 Q 108.74 -9.41 105.82 -6.08 Q 102.9 -2.75 98.3 -0.9 Q 93.7 0.95 87.7 0.95 Z M 134.88 18.19 L 121.42 18.19 L 121.42 -48.52 L 134.69 -48.52 L 134.69 -40.37 L 135.29 -40.37 Q 136.17 -42.33 137.86 -44.36 Q 139.55 -46.4 142.29 -47.78 Q 145.02 -49.15 149.09 -49.15 L 149.09 -49.15 Q 154.4 -49.15 158.88 -46.39 Q 163.37 -43.62 166.06 -38.08 Q 168.74 -32.54 168.74 -24.2 L 168.74 -24.2 Q 168.74 -16.08 166.13 -10.5 Q 163.53 -4.93 159.06 -2.07 Q 154.59 0.79 149.06 0.79 L 149.06 0.79 Q 145.14 0.79 142.41 -0.51 Q 139.68 -1.8 137.94 -3.77 Q 136.2 -5.75 135.29 -7.77 L 135.29 -7.77 L 134.88 -7.77 L 134.88 18.19 Z M 134.59 -24.26 L 134.59 -24.26 Q 134.59 -19.93 135.79 -16.71 Q 136.99 -13.49 139.27 -11.7 Q 141.54 -9.92 144.8 -9.92 L 144.8 -9.92 Q 148.08 -9.92 150.36 -11.73 Q 152.63 -13.55 153.82 -16.79 Q 155 -20.03 155 -24.26 L 155 -24.26 Q 155 -28.46 153.83 -31.65 Q 152.66 -34.84 150.39 -36.64 Q 148.11 -38.44 144.8 -38.44 L 144.8 -38.44 Q 141.51 -38.44 139.25 -36.7 Q 136.99 -34.97 135.79 -31.78 Q 134.59 -28.59 134.59 -24.26 Z M 193.8 0 L 180.35 0 L 180.35 -48.52 L 193.39 -48.52 L 193.39 -40.05 L 193.9 -40.05 Q 195.23 -44.57 198.35 -46.89 Q 201.48 -49.21 205.56 -49.21 L 205.56 -49.21 Q 206.57 -49.21 207.73 -49.09 Q 208.9 -48.96 209.79 -48.74 L 209.79 -48.74 L 209.79 -36.8 Q 208.84 -37.08 207.17 -37.31 Q 205.49 -37.53 204.1 -37.53 L 204.1 -37.53 Q 201.13 -37.53 198.81 -36.25 Q 196.49 -34.97 195.15 -32.69 Q 193.8 -30.42 193.8 -27.45 L 193.8 -27.45 L 193.8 0 Z M 239.02 0.95 L 239.02 0.95 Q 231.66 0.95 226.31 -2.2 Q 220.95 -5.34 218.05 -10.98 Q 215.14 -16.62 215.14 -24.07 L 215.14 -24.07 Q 215.14 -31.59 218.05 -37.23 Q 220.95 -42.86 226.31 -46.01 Q 231.66 -49.15 239.02 -49.15 L 239.02 -49.15 Q 246.38 -49.15 251.74 -46.01 Q 257.09 -42.86 260 -37.23 Q 262.9 -31.59 262.9 -24.07 L 262.9 -24.07 Q 262.9 -16.62 260 -10.98 Q 257.09 -5.34 251.74 -2.2 Q 246.38 0.95 239.02 0.95 Z M 239.08 -9.48 L 239.08 -9.48 Q 242.43 -9.48 244.68 -11.39 Q 246.92 -13.3 248.07 -16.62 Q 249.22 -19.93 249.22 -24.16 L 249.22 -24.16 Q 249.22 -28.4 248.07 -31.71 Q 246.92 -35.03 244.68 -36.96 Q 242.43 -38.88 239.08 -38.88 L 239.08 -38.88 Q 235.7 -38.88 233.41 -36.96 Q 231.12 -35.03 229.97 -31.71 Q 228.82 -28.4 228.82 -24.16 L 228.82 -24.16 Q 228.82 -19.93 229.97 -16.62 Q 231.12 -13.3 233.41 -11.39 Q 235.7 -9.48 239.08 -9.48 Z M 287.81 0 L 274.35 0 L 274.35 -48.52 L 287.18 -48.52 L 287.18 -39.96 L 287.75 -39.96 Q 289.26 -44.22 292.8 -46.69 Q 296.34 -49.15 301.26 -49.15 L 301.26 -49.15 Q 306.26 -49.15 309.76 -46.67 Q 313.27 -44.19 314.44 -39.96 L 314.44 -39.96 L 314.94 -39.96 Q 316.43 -44.13 320.33 -46.64 Q 324.23 -49.15 329.57 -49.15 L 329.57 -49.15 Q 336.36 -49.15 340.61 -44.84 Q 344.86 -40.53 344.86 -32.63 L 344.86 -32.63 L 344.86 0 L 331.43 0 L 331.43 -29.98 Q 331.43 -34.02 329.28 -36.04 Q 327.13 -38.06 323.91 -38.06 L 323.91 -38.06 Q 320.25 -38.06 318.2 -35.74 Q 316.14 -33.42 316.14 -29.63 L 316.14 -29.63 L 316.14 0 L 303.1 0 L 303.1 -30.26 Q 303.1 -33.83 301.06 -35.95 Q 299.02 -38.06 295.71 -38.06 L 295.71 -38.06 Q 293.46 -38.06 291.68 -36.94 Q 289.89 -35.82 288.85 -33.81 Q 287.81 -31.81 287.81 -29.12 L 287.81 -29.12 L 287.81 0 Z M 371.59 18.19 L 358.14 18.19 L 358.14 -48.52 L 371.4 -48.52 L 371.4 -40.37 L 372 -40.37 Q 372.89 -42.33 374.58 -44.36 Q 376.27 -46.4 379 -47.78 Q 381.73 -49.15 385.81 -49.15 L 385.81 -49.15 Q 391.12 -49.15 395.6 -46.39 Q 400.09 -43.62 402.77 -38.08 Q 405.46 -32.54 405.46 -24.2 L 405.46 -24.2 Q 405.46 -16.08 402.85 -10.5 Q 400.24 -4.93 395.77 -2.07 Q 391.3 0.79 385.78 0.79 L 385.78 0.79 Q 381.86 0.79 379.13 -0.51 Q 376.4 -1.8 374.66 -3.77 Q 372.92 -5.75 372 -7.77 L 372 -7.77 L 371.59 -7.77 L 371.59 18.19 Z M 371.31 -24.26 L 371.31 -24.26 Q 371.31 -19.93 372.51 -16.71 Q 373.71 -13.49 375.98 -11.7 Q 378.26 -9.92 381.51 -9.92 L 381.51 -9.92 Q 384.8 -9.92 387.07 -11.73 Q 389.35 -13.55 390.53 -16.79 Q 391.72 -20.03 391.72 -24.26 L 391.72 -24.26 Q 391.72 -28.46 390.55 -31.65 Q 389.38 -34.84 387.1 -36.64 Q 384.83 -38.44 381.51 -38.44 L 381.51 -38.44 Q 378.23 -38.44 375.97 -36.7 Q 373.71 -34.97 372.51 -31.78 Q 371.31 -28.59 371.31 -24.26 Z M 413.65 -48.52 L 442.87 -48.52 L 442.87 -38.41 L 413.65 -38.41 L 413.65 -48.52 Z M 420.29 -13.14 L 420.29 -60.14 L 433.74 -60.14 L 433.74 -14.91 Q 433.74 -13.05 434.31 -12.02 Q 434.88 -10.99 435.91 -10.58 Q 436.93 -10.17 438.29 -10.17 L 438.29 -10.17 Q 439.24 -10.17 440.19 -10.34 Q 441.13 -10.52 441.64 -10.61 L 441.64 -10.61 L 443.76 -0.6 Q 442.74 -0.28 440.91 0.14 Q 439.08 0.57 436.46 0.66 L 436.46 0.66 Q 431.59 0.85 427.95 -0.63 Q 424.3 -2.12 422.28 -5.24 Q 420.25 -8.37 420.29 -13.14 L 420.29 -13.14 Z" stroke-linecap="round" />
</g>
</g>
</g>
</svg>