<svg width="1261" height="261" viewBox="0 0 1261 261" fill="none" xmlns="http://www.w3.org/2000/svg">
<path d="M115.815 80.2881L87.082 96.7979L28.6074 62.7715V151.618L160.675 75.415L145.81 65.6699L196.849 70.71L175.803 117.213L176.026 98.4678L0 200.894V14L115.815 80.2881Z" fill="white"/>
<path d="M152.372 194.639L181.105 178.129L239.58 212.155L239.58 123.309L107.513 199.512L122.378 209.257L71.3389 204.217L92.3848 157.714L92.1611 176.459L268.188 74.0332L268.188 260.927L152.372 194.639Z" fill="white"/>
<path d="M320.965 192V48H377.777C388.652 48 397.934 49.9453 405.621 53.8359C413.355 57.6797 419.238 63.1406 423.27 70.2188C427.348 77.25 429.387 85.5234 429.387 95.0391C429.387 104.602 427.324 112.828 423.199 119.719C419.074 126.562 413.098 131.812 405.27 135.469C397.488 139.125 388.066 140.953 377.004 140.953H338.965V116.484H372.082C377.895 116.484 382.723 115.687 386.566 114.094C390.41 112.5 393.27 110.109 395.145 106.922C397.066 103.734 398.027 99.7734 398.027 95.0391C398.027 90.2578 397.066 86.2266 395.145 82.9453C393.27 79.6641 390.387 77.1797 386.496 75.4922C382.652 73.7578 377.801 72.8906 371.941 72.8906H351.41V192H320.965ZM398.73 126.469L434.52 192H400.91L365.895 126.469H398.73ZM497.818 194.109C486.709 194.109 477.146 191.859 469.131 187.359C461.162 182.812 455.021 176.391 450.709 168.094C446.396 159.75 444.24 149.883 444.24 138.492C444.24 127.383 446.396 117.633 450.709 109.242C455.021 100.852 461.092 94.3125 468.92 89.625C476.795 84.9375 486.029 82.5938 496.623 82.5938C503.748 82.5938 510.381 83.7422 516.521 86.0391C522.709 88.2891 528.1 91.6875 532.693 96.2344C537.334 100.781 540.943 106.5 543.521 113.391C546.1 120.234 547.389 128.25 547.389 137.437V145.664H456.193V127.102H519.193C519.193 122.789 518.256 118.969 516.381 115.641C514.506 112.312 511.904 109.711 508.576 107.836C505.295 105.914 501.475 104.953 497.115 104.953C492.568 104.953 488.537 106.008 485.021 108.117C481.553 110.18 478.834 112.969 476.865 116.484C474.896 119.953 473.889 123.82 473.842 128.086V145.734C473.842 151.078 474.826 155.695 476.795 159.586C478.811 163.477 481.646 166.477 485.303 168.586C488.959 170.695 493.295 171.75 498.311 171.75C501.639 171.75 504.686 171.281 507.451 170.344C510.217 169.406 512.584 168 514.553 166.125C516.521 164.25 518.021 161.953 519.053 159.234L546.756 161.062C545.35 167.719 542.467 173.531 538.107 178.5C533.795 183.422 528.217 187.266 521.373 190.031C514.576 192.75 506.725 194.109 497.818 194.109ZM566.936 232.5V84H596.467V102.141H597.803C599.115 99.2344 601.014 96.2812 603.498 93.2812C606.029 90.2344 609.311 87.7031 613.342 85.6875C617.42 83.625 622.482 82.5938 628.529 82.5938C636.404 82.5938 643.67 84.6563 650.326 88.7813C656.982 92.8594 662.303 99.0234 666.287 107.273C670.271 115.477 672.264 125.766 672.264 138.141C672.264 150.187 670.318 160.359 666.428 168.656C662.584 176.906 657.334 183.164 650.678 187.43C644.068 191.648 636.662 193.758 628.459 193.758C622.646 193.758 617.701 192.797 613.623 190.875C609.592 188.953 606.287 186.539 603.709 183.633C601.131 180.68 599.162 177.703 597.803 174.703H596.889V232.5H566.936ZM596.256 138C596.256 144.422 597.146 150.023 598.928 154.805C600.709 159.586 603.287 163.312 606.662 165.984C610.037 168.609 614.139 169.922 618.967 169.922C623.842 169.922 627.967 168.586 631.342 165.914C634.717 163.195 637.271 159.445 639.006 154.664C640.787 149.836 641.678 144.281 641.678 138C641.678 131.766 640.811 126.281 639.076 121.547C637.342 116.812 634.787 113.109 631.412 110.437C628.037 107.766 623.889 106.43 618.967 106.43C614.092 106.43 609.967 107.719 606.592 110.297C603.264 112.875 600.709 116.531 598.928 121.266C597.146 126 596.256 131.578 596.256 138ZM692.232 192V84H721.271V102.844H722.396C724.365 96.1406 727.67 91.0781 732.311 87.6563C736.951 84.1875 742.295 82.4531 748.342 82.4531C749.842 82.4531 751.459 82.5469 753.193 82.7344C754.928 82.9219 756.451 83.1797 757.764 83.5078V110.086C756.357 109.664 754.412 109.289 751.928 108.961C749.443 108.633 747.17 108.469 745.107 108.469C740.701 108.469 736.764 109.43 733.295 111.352C729.873 113.227 727.154 115.852 725.139 119.227C723.17 122.602 722.186 126.492 722.186 130.898V192H692.232ZM817.02 194.109C806.098 194.109 796.652 191.789 788.684 187.148C780.762 182.461 774.645 175.945 770.332 167.602C766.02 159.211 763.863 149.484 763.863 138.422C763.863 127.266 766.02 117.516 770.332 109.172C774.645 100.781 780.762 94.2656 788.684 89.625C796.652 84.9375 806.098 82.5938 817.02 82.5938C827.941 82.5938 837.363 84.9375 845.285 89.625C853.254 94.2656 859.395 100.781 863.707 109.172C868.02 117.516 870.176 127.266 870.176 138.422C870.176 149.484 868.02 159.211 863.707 167.602C859.395 175.945 853.254 182.461 845.285 187.148C837.363 191.789 827.941 194.109 817.02 194.109ZM817.16 170.906C822.129 170.906 826.277 169.5 829.605 166.688C832.934 163.828 835.441 159.937 837.129 155.016C838.863 150.094 839.73 144.492 839.73 138.211C839.73 131.93 838.863 126.328 837.129 121.406C835.441 116.484 832.934 112.594 829.605 109.734C826.277 106.875 822.129 105.445 817.16 105.445C812.145 105.445 807.926 106.875 804.504 109.734C801.129 112.594 798.574 116.484 796.84 121.406C795.152 126.328 794.309 131.93 794.309 138.211C794.309 144.492 795.152 150.094 796.84 155.016C798.574 159.937 801.129 163.828 804.504 166.688C807.926 169.5 812.145 170.906 817.16 170.906ZM889.652 192V84H918.199V103.055H919.465C921.715 96.7266 925.465 91.7344 930.715 88.0781C935.965 84.4219 942.246 82.5938 949.559 82.5938C956.965 82.5938 963.27 84.4453 968.473 88.1484C973.676 91.8047 977.145 96.7734 978.879 103.055H980.004C982.207 96.8672 986.191 91.9219 991.957 88.2187C997.77 84.4687 1004.64 82.5938 1012.56 82.5938C1022.64 82.5938 1030.82 85.8047 1037.1 92.2266C1043.43 98.6016 1046.59 107.648 1046.59 119.367V192H1016.71V125.273C1016.71 119.273 1015.11 114.773 1011.93 111.773C1008.74 108.773 1004.75 107.273 999.973 107.273C994.535 107.273 990.293 109.008 987.246 112.477C984.199 115.898 982.676 120.422 982.676 126.047V192H953.637V124.641C953.637 119.344 952.113 115.125 949.066 111.984C946.066 108.844 942.105 107.273 937.184 107.273C933.855 107.273 930.855 108.117 928.184 109.805C925.559 111.445 923.473 113.766 921.926 116.766C920.379 119.719 919.605 123.187 919.605 127.172V192H889.652ZM1070.25 232.5V84H1099.78V102.141H1101.12C1102.43 99.2344 1104.33 96.2812 1106.81 93.2812C1109.34 90.2344 1112.63 87.7031 1116.66 85.6875C1120.73 83.625 1125.8 82.5938 1131.84 82.5938C1139.72 82.5938 1146.98 84.6563 1153.64 88.7813C1160.3 92.8594 1165.62 99.0234 1169.6 107.273C1173.59 115.477 1175.58 125.766 1175.58 138.141C1175.58 150.187 1173.63 160.359 1169.74 168.656C1165.9 176.906 1160.65 183.164 1153.99 187.43C1147.38 191.648 1139.98 193.758 1131.77 193.758C1125.96 193.758 1121.02 192.797 1116.94 190.875C1112.91 188.953 1109.6 186.539 1107.02 183.633C1104.45 180.68 1102.48 177.703 1101.12 174.703H1100.2V232.5H1070.25ZM1099.57 138C1099.57 144.422 1100.46 150.023 1102.24 154.805C1104.02 159.586 1106.6 163.312 1109.98 165.984C1113.35 168.609 1117.45 169.922 1122.28 169.922C1127.16 169.922 1131.28 168.586 1134.66 165.914C1138.03 163.195 1140.59 159.445 1142.32 154.664C1144.1 149.836 1144.99 144.281 1144.99 138C1144.99 131.766 1144.13 126.281 1142.39 121.547C1140.66 116.812 1138.1 113.109 1134.73 110.437C1131.35 107.766 1127.2 106.43 1122.28 106.43C1117.41 106.43 1113.28 107.719 1109.91 110.297C1106.58 112.875 1104.02 116.531 1102.24 121.266C1100.46 126 1099.57 131.578 1099.57 138ZM1252.99 84V106.5H1187.95V84H1252.99ZM1202.72 58.125H1232.67V158.812C1232.67 161.578 1233.09 163.734 1233.94 165.281C1234.78 166.781 1235.95 167.836 1237.45 168.445C1239 169.055 1240.78 169.359 1242.8 169.359C1244.2 169.359 1245.61 169.242 1247.02 169.008C1248.42 168.727 1249.5 168.516 1250.25 168.375L1254.96 190.664C1253.46 191.133 1251.35 191.672 1248.63 192.281C1245.91 192.938 1242.61 193.336 1238.72 193.477C1231.5 193.758 1225.17 192.797 1219.73 190.594C1214.34 188.391 1210.15 184.969 1207.15 180.328C1204.15 175.687 1202.67 169.828 1202.72 162.75V58.125Z" fill="white"/>
</svg>
